<svg xmlns="http://www.w3.org/2000/svg" viewBox="0 0 32 32" width="32" height="32">
  <!-- Background -->
  <rect width="32" height="32" rx="6" fill="#080c0e"/>

  <!-- Signal arcs (left side) -->
  <path d="M10.5 20 A7 7 0 0 1 10.5 12" fill="none" stroke="#00e5a0" stroke-width="1.6" stroke-linecap="round" opacity="0.5"/>
  <path d="M8   22 A11 11 0 0 1 8   10" fill="none" stroke="#00e5a0" stroke-width="1.4" stroke-linecap="round" opacity="0.25"/>

  <!-- Signal arcs (right side) -->
  <path d="M21.5 12 A7 7 0 0 1 21.5 20" fill="none" stroke="#00e5a0" stroke-width="1.6" stroke-linecap="round" opacity="0.5"/>
  <path d="M24   10 A11 11 0 0 1 24   22" fill="none" stroke="#00e5a0" stroke-width="1.4" stroke-linecap="round" opacity="0.25"/>

  <!-- Antenna tower body -->
  <line x1="16" y1="5"  x2="16" y2="16" stroke="#00e5a0" stroke-width="1.8" stroke-linecap="round"/>
  <line x1="16" y1="16" x2="11" y2="26" stroke="#00e5a0" stroke-width="1.5" stroke-linecap="round"/>
  <line x1="16" y1="16" x2="21" y2="26" stroke="#00e5a0" stroke-width="1.5" stroke-linecap="round"/>
  <line x1="13.2" y1="20" x2="18.8" y2="20" stroke="#00e5a0" stroke-width="1.2" stroke-linecap="round"/>
  <line x1="12"   y1="23" x2="20"   y2="23" stroke="#00e5a0" stroke-width="1.2" stroke-linecap="round"/>

  <!-- Tip glow dot -->
  <circle cx="16" cy="5" r="1.5" fill="#00e5a0" opacity="0.9"/>
  <circle cx="16" cy="5" r="3"   fill="#00e5a0" opacity="0.15"/>
</svg>
